<svg width="15" height="15" viewBox="0 0 15 15" fill="none" xmlns="http://www.w3.org/2000/svg">
<path d="M14.196 0.9233H10.2526L9.94374 0.38375C9.87831 0.268399 9.77752 0.171369 9.6527 0.103575C9.52788 0.0357811 9.384 -8.73658e-05 9.23723 5.05871e-06H5.48122C5.33478 -0.000489208 5.19115 0.0352455 5.06678 0.103115C4.9424 0.170985 4.84232 0.268244 4.77799 0.38375L4.4691 0.9233H0.525776C0.386332 0.9233 0.252598 0.971938 0.153996 1.05851C0.0553941 1.14509 0 1.26251 0 1.38495L0 2.30824C0 2.43068 0.0553941 2.5481 0.153996 2.63468C0.252598 2.72125 0.386332 2.76989 0.525776 2.76989H14.196C14.3354 2.76989 14.4691 2.72125 14.5677 2.63468C14.6663 2.5481 14.7217 2.43068 14.7217 2.30824V1.38495C14.7217 1.26251 14.6663 1.14509 14.5677 1.05851C14.4691 0.971938 14.3354 0.9233 14.196 0.9233ZM1.74821 13.4743C1.77328 13.8259 1.95003 14.1559 2.24245 14.3972C2.53488 14.6384 2.92102 14.7727 3.32225 14.7727H11.3995C11.8007 14.7727 12.1869 14.6384 12.4793 14.3972C12.7717 14.1559 12.9485 13.8259 12.9735 13.4743L13.6702 3.69319H1.05155L1.74821 13.4743Z" fill="#2B9CFF"/>
</svg>
