<svg width="10" height="11" viewBox="0 0 10 11" fill="none" xmlns="http://www.w3.org/2000/svg">
<path d="M0.5509 10.5C0.47477 10.4999 0.399502 10.4839 0.329879 10.4531C0.260257 10.4223 0.197805 10.3773 0.146494 10.3211C0.0942549 10.2653 0.0543931 10.1991 0.0295225 10.1268C0.00465195 10.0546 -0.00466561 9.97785 0.00218067 9.90173L0.136617 8.42308L6.34702 2.21318L8.28784 4.15398L2.07908 10.3633L0.600833 10.4978C0.584233 10.4993 0.56757 10.5001 0.5509 10.5V10.5ZM8.67523 3.76593L6.73496 1.82513L7.8988 0.660976C7.94976 0.609944 8.01027 0.56946 8.07689 0.541839C8.1435 0.514217 8.2149 0.5 8.28701 0.5C8.35912 0.5 8.43053 0.514217 8.49714 0.541839C8.56375 0.56946 8.62427 0.609944 8.67523 0.660976L9.83907 1.82513C9.89009 1.8761 9.93056 1.93664 9.95817 2.00327C9.98579 2.0699 10 2.14132 10 2.21345C10 2.28558 9.98579 2.357 9.95817 2.42363C9.93056 2.49027 9.89009 2.5508 9.83907 2.60178L8.67578 3.76538L8.67523 3.76593V3.76593Z" fill="white"/>
</svg>
