<svg width="102" height="57" viewBox="0 0 102 57" fill="none" xmlns="http://www.w3.org/2000/svg">
<path d="M50.09 13.22C50.69 13.22 51.3 13.17 51.92 13.07C52.54 12.95 53.09 12.79 53.57 12.59C53.55 13.87 53.22 14.83 52.58 15.47C51.96 16.09 51.04 16.4 49.82 16.4C49.24 16.4 48.59 16.35 47.87 16.25C47.17 16.15 46.27 15.98 45.17 15.74L41.03 35H36.71L40.97 15.14H40.61C38.67 15.14 37.24 15.64 36.32 16.64C35.42 17.62 34.97 19.14 34.97 21.2C34.97 21.58 34.99 21.91 35.03 22.19C35.09 22.47 35.18 22.74 35.3 23C35.34 23.08 35.36 23.14 35.36 23.18C35.38 23.2 35.39 23.22 35.39 23.24C34.27 23.24 33.45 23.01 32.93 22.55C32.43 22.07 32.18 21.33 32.18 20.33C32.18 17.95 33.07 16.06 34.85 14.66C36.65 13.24 39.17 12.53 42.41 12.53C43.07 12.53 43.7 12.56 44.3 12.62C44.92 12.66 45.71 12.75 46.67 12.89C47.51 13.03 48.16 13.12 48.62 13.16C49.1 13.2 49.59 13.22 50.09 13.22ZM46.0234 30.38C46.0234 29.24 46.2034 28.03 46.5634 26.75C46.9434 25.47 47.4534 24.33 48.0934 23.33C48.8334 22.15 49.7234 21.26 50.7634 20.66C51.8034 20.04 52.9634 19.73 54.2434 19.73C55.5234 19.73 56.4834 20.13 57.1234 20.93C57.7634 21.73 58.0834 22.93 58.0834 24.53C58.1234 24.55 58.1634 24.57 58.2034 24.59C58.2634 24.59 58.3334 24.59 58.4134 24.59C59.0334 24.59 59.7734 24.42 60.6334 24.08C61.4934 23.74 62.2934 23.31 63.0334 22.79L63.3034 23.6C62.7434 24.2 61.9934 24.72 61.0534 25.16C60.1334 25.6 59.1134 25.91 57.9934 26.09C57.7534 28.79 56.9734 30.97 55.6534 32.63C54.3334 34.29 52.7234 35.12 50.8234 35.12C49.2634 35.12 48.0734 34.72 47.2534 33.92C46.4334 33.12 46.0234 31.94 46.0234 30.38ZM54.4834 21.56C53.5234 21.56 52.6134 22.53 51.7534 24.47C50.9134 26.41 50.4934 28.25 50.4934 29.99C50.4934 30.93 50.5934 31.57 50.7934 31.91C51.0134 32.25 51.4234 32.42 52.0234 32.42C52.7634 32.42 53.4634 31.82 54.1234 30.62C54.8034 29.42 55.2634 27.94 55.5034 26.18C55.2234 26.12 55.0134 25.99 54.8734 25.79C54.7534 25.57 54.6934 25.28 54.6934 24.92C54.6934 24.54 54.7734 24.21 54.9334 23.93C55.0934 23.65 55.3234 23.44 55.6234 23.3C55.5834 22.66 55.4734 22.21 55.2934 21.95C55.1334 21.69 54.8634 21.56 54.4834 21.56ZM64.5266 29.93C64.5266 30.71 64.6366 31.3 64.8566 31.7C65.0766 32.08 65.4666 32.27 66.0266 32.27C66.5266 32.27 67.0166 32.04 67.4966 31.58C67.9766 31.1 68.3066 30.5 68.4866 29.78V29.63L69.9566 22.76C69.8966 22.44 69.7566 22.19 69.5366 22.01C69.3366 21.81 69.0666 21.71 68.7266 21.71C67.6266 21.71 66.6466 22.63 65.7866 24.47C64.9466 26.31 64.5266 28.13 64.5266 29.93ZM70.2266 21.38V21.5L71.6966 14.6L76.1366 14L72.6866 30.2C72.6466 30.38 72.6166 30.55 72.5966 30.71C72.5766 30.85 72.5666 31 72.5666 31.16C72.5666 31.56 72.6566 31.85 72.8366 32.03C73.0366 32.19 73.3566 32.27 73.7966 32.27C74.3166 32.27 74.7866 32.04 75.2066 31.58C75.6266 31.12 75.9666 30.47 76.2266 29.63H77.4866C76.8666 31.41 76.0566 32.75 75.0566 33.65C74.0766 34.55 72.8766 35 71.4566 35C70.6366 35 69.9666 34.78 69.4466 34.34C68.9466 33.88 68.6366 33.24 68.5166 32.42C67.9166 33.34 67.2466 34.03 66.5066 34.49C65.7666 34.95 64.9566 35.18 64.0766 35.18C62.8366 35.18 61.8566 34.76 61.1366 33.92C60.4366 33.08 60.0866 31.89 60.0866 30.35C60.0866 29.23 60.2566 28.06 60.5966 26.84C60.9366 25.62 61.4066 24.51 62.0066 23.51C62.7466 22.33 63.6066 21.43 64.5866 20.81C65.5666 20.17 66.6366 19.85 67.7966 19.85C68.5766 19.85 69.1766 19.99 69.5966 20.27C70.0166 20.53 70.2266 20.9 70.2266 21.38ZM75.2909 30.38C75.2909 29.24 75.4709 28.03 75.8309 26.75C76.2109 25.47 76.7209 24.33 77.3609 23.33C78.1009 22.15 78.9909 21.26 80.0309 20.66C81.0709 20.04 82.2309 19.73 83.5109 19.73C84.7909 19.73 85.7509 20.13 86.3909 20.93C87.0309 21.73 87.3509 22.93 87.3509 24.53C87.3909 24.55 87.4309 24.57 87.4709 24.59C87.5309 24.59 87.6009 24.59 87.6809 24.59C88.3009 24.59 89.0409 24.42 89.9009 24.08C90.7609 23.74 91.5609 23.31 92.3009 22.79L92.5709 23.6C92.0109 24.2 91.2609 24.72 90.3209 25.16C89.4009 25.6 88.3809 25.91 87.2609 26.09C87.0209 28.79 86.2409 30.97 84.9209 32.63C83.6009 34.29 81.9909 35.12 80.0909 35.12C78.5309 35.12 77.3409 34.72 76.5209 33.92C75.7009 33.12 75.2909 31.94 75.2909 30.38ZM83.7509 21.56C82.7909 21.56 81.8809 22.53 81.0209 24.47C80.1809 26.41 79.7609 28.25 79.7609 29.99C79.7609 30.93 79.8609 31.57 80.0609 31.91C80.2809 32.25 80.6909 32.42 81.2909 32.42C82.0309 32.42 82.7309 31.82 83.3909 30.62C84.0709 29.42 84.5309 27.94 84.7709 26.18C84.4909 26.12 84.2809 25.99 84.1409 25.79C84.0209 25.57 83.9609 25.28 83.9609 24.92C83.9609 24.54 84.0409 24.21 84.2009 23.93C84.3609 23.65 84.5909 23.44 84.8909 23.3C84.8509 22.66 84.7409 22.21 84.5609 21.95C84.4009 21.69 84.1309 21.56 83.7509 21.56ZM98.3145 29.99C98.3145 30.23 98.3045 30.44 98.2845 30.62C98.2645 30.8 98.2345 30.97 98.1945 31.13C98.5945 30.89 98.9845 30.64 99.3645 30.38C99.7445 30.12 100.075 29.87 100.355 29.63H101.615C100.995 30.35 100.305 31.02 99.5445 31.64C98.8045 32.24 97.9645 32.82 97.0245 33.38C96.4845 33.96 95.7945 34.41 94.9545 34.73C94.1145 35.03 93.2345 35.18 92.3145 35.18C90.9745 35.18 89.9045 34.82 89.1045 34.1C88.3245 33.36 87.9345 32.44 87.9345 31.34C87.9345 30.72 88.0845 30.16 88.3845 29.66C88.6845 29.14 89.0645 28.77 89.5245 28.55C90.2045 27.33 90.8345 26.03 91.4145 24.65C92.0145 23.25 92.6145 21.59 93.2145 19.67L97.6545 19.07C97.7145 20.57 97.7845 21.94 97.8645 23.18C97.9445 24.42 98.0445 25.77 98.1645 27.23C98.2245 28.07 98.2645 28.66 98.2845 29C98.3045 29.34 98.3145 29.67 98.3145 29.99ZM93.3945 22.91C93.1345 23.73 92.8145 24.59 92.4345 25.49C92.0745 26.37 91.5845 27.4 90.9645 28.58C91.1845 28.68 91.3545 28.82 91.4745 29C91.5945 29.18 91.6545 29.39 91.6545 29.63C91.6545 30.01 91.5245 30.35 91.2645 30.65C91.0045 30.95 90.6945 31.1 90.3345 31.1C90.1345 31.1 89.9645 31.07 89.8245 31.01C89.6845 30.93 89.5845 30.83 89.5245 30.71C89.5245 31.45 89.6645 31.99 89.9445 32.33C90.2445 32.65 90.7145 32.81 91.3545 32.81C92.1745 32.81 92.8145 32.57 93.2745 32.09C93.7345 31.61 93.9645 30.92 93.9645 30.02C93.9645 29.74 93.9545 29.46 93.9345 29.18C93.9145 28.88 93.8745 28.39 93.8145 27.71C93.7145 26.77 93.6345 25.94 93.5745 25.22C93.5145 24.5 93.4545 23.73 93.3945 22.91Z" fill="#2B9CFF"/>
<path d="M19.2482 14.0013H2.74974C1.23945 14.0013 0 15.1845 0 16.6263V20.0027L3.75615 22.0843C4.03868 22.2418 4.3934 22.2386 4.67662 22.0843C4.91585 21.9551 12.0267 18.0517 12.1339 17.9926C12.389 17.8528 12.6639 17.9007 12.8179 17.9867C12.9685 18.0681 13.3768 18.2906 13.5879 18.4034C13.803 18.5235 13.792 18.8444 13.6023 18.9501L4.70137 23.8411C4.3824 24.015 4.06824 24.019 3.73827 23.8411C2.48978 23.1562 1.24391 22.4669 0.000687436 21.7733V23.5399L3.75684 25.6215C4.03937 25.779 4.39409 25.779 4.67731 25.6215C4.91654 25.4955 12.0274 21.5889 12.1346 21.5298C12.3897 21.39 12.6646 21.4379 12.8186 21.5239C12.9692 21.6086 13.3775 21.8277 13.5885 21.9439C13.8037 22.0601 13.7927 22.3816 13.603 22.4873C13.4132 22.5929 5.08909 27.1631 4.70206 27.3783C4.38309 27.5522 4.06893 27.5562 3.73896 27.3783C2.49047 26.6934 1.2446 26.0041 0.00137487 25.3105V27.0771L3.75752 29.1587C4.04006 29.3195 4.39478 29.3162 4.678 29.1587C4.91723 29.0327 12.0281 25.1293 12.1353 25.067C12.3903 24.9272 12.6653 24.9751 12.8193 25.0611C12.9698 25.1458 13.3782 25.3649 13.5892 25.4811C13.8044 25.5973 13.7934 25.9188 13.6037 26.0245L4.70275 30.9155C4.38378 31.0894 4.06962 31.0933 3.73965 30.9188C3.18901 30.6176 0.914977 29.3569 0.00206231 28.8477V32.375C0.00206231 33.8168 1.24151 35 2.7518 35H19.2503C20.7606 35 22 33.8168 22 32.375V16.625C22 15.1832 20.7606 14 19.2503 14L19.2482 14.0013Z" fill="#2B9CFF"/>
</svg>
