<svg width="16" height="3" viewBox="0 0 16 3" fill="none" xmlns="http://www.w3.org/2000/svg">
<path d="M2.28557 3C1.83092 3 1.39488 2.84196 1.07339 2.56066C0.751901 2.27936 0.571289 1.89782 0.571289 1.5C0.571289 1.10218 0.751901 0.720644 1.07339 0.43934C1.39488 0.158035 1.83092 0 2.28557 0C2.74023 0 3.17627 0.158035 3.49776 0.43934C3.81925 0.720644 3.99986 1.10218 3.99986 1.5C3.99986 1.89782 3.81925 2.27936 3.49776 2.56066C3.17627 2.84196 2.74023 3 2.28557 3ZM7.99986 3C7.5452 3 7.10917 2.84196 6.78768 2.56066C6.46619 2.27936 6.28557 1.89782 6.28557 1.5C6.28557 1.10218 6.46619 0.720644 6.78768 0.43934C7.10917 0.158035 7.5452 0 7.99986 0C8.45452 0 8.89055 0.158035 9.21204 0.43934C9.53353 0.720644 9.71415 1.10218 9.71415 1.5C9.71415 1.89782 9.53353 2.27936 9.21204 2.56066C8.89055 2.84196 8.45452 3 7.99986 3ZM13.7141 3C13.2595 3 12.8235 2.84196 12.502 2.56066C12.1805 2.27936 11.9999 1.89782 11.9999 1.5C11.9999 1.10218 12.1805 0.720644 12.502 0.43934C12.8235 0.158035 13.2595 0 13.7141 0C14.1688 0 14.6048 0.158035 14.9263 0.43934C15.2478 0.720644 15.4284 1.10218 15.4284 1.5C15.4284 1.89782 15.2478 2.27936 14.9263 2.56066C14.6048 2.84196 14.1688 3 13.7141 3Z" fill="white"/>
</svg>
