<?xml version="1.0" encoding="utf-8"?>
<!-- Generator: Adobe Illustrator 23.0.1, SVG Export Plug-In . SVG Version: 6.00 Build 0)  -->
<svg version="1.1" id="Layer_1" xmlns="http://www.w3.org/2000/svg" xmlns:xlink="http://www.w3.org/1999/xlink" x="0px" y="0px"
	 viewBox="0 0 25 25" style="enable-background:new 0 0 25 25;" xml:space="preserve">
<style type="text/css">
	.st0{fill:#231F20;}
</style>
<path class="st0" d="M12.5,0C5.6,0,0,5.6,0,12.5S5.6,25,12.5,25S25,19.4,25,12.5S19.4,0,12.5,0z M20.2,14.8L15,20.1
	c-1,1-2.3,1.5-3.8,1.5c0,0,0,0,0,0c-1.7,0-3.5-0.8-4.8-2.1C4,17,3.7,13.1,5.9,10.9l6.2-6.3c0.7-0.7,1.7-1.1,2.8-1.1c0,0,0,0,0,0
	c1.3,0,2.5,0.6,3.5,1.5c1.8,1.9,2,4.7,0.4,6.4l-5.2,5.3c-0.5,0.5-1.1,0.7-1.8,0.7c0,0,0,0,0,0c-0.8,0-1.6-0.4-2.2-1
	c-1.2-1.2-1.3-3-0.3-4.1L13.5,8c0.2-0.2,0.5-0.3,0.8-0.3c0,0,0,0,0,0c0.4,0,0.7,0.2,1,0.4c0.5,0.5,0.6,1.3,0.1,1.8l-4.1,4.2
	c-0.1,0.1-0.1,0.3,0.1,0.4c0.1,0.1,0.2,0.1,0.3,0.1c0.1,0,0.1,0,0.1,0L17,9.4c0.7-0.7,0.6-1.9-0.2-2.7c-0.4-0.4-1-0.7-1.5-0.7
	c0,0,0,0,0,0c-0.4,0-0.8,0.2-1.1,0.4l-6.2,6.4c-1.3,1.3-1.1,3.5,0.4,5C9,18.6,10,19,11.1,19c0,0,0,0,0,0c0.8,0,1.5-0.3,2.1-0.8
	l5.2-5.3c0.2-0.2,0.5-0.3,0.8-0.3c0.4,0,0.7,0.2,1,0.4C20.7,13.5,20.7,14.3,20.2,14.8z"/>
</svg>
